<?xml version="1.0" standalone="no"?>
<!DOCTYPE svg PUBLIC "-//W3C//DTD SVG 20010904//EN"
 "http://www.w3.org/TR/2001/REC-SVG-20010904/DTD/svg10.dtd">
<svg version="1.0" xmlns="http://www.w3.org/2000/svg"
 width="1024.000000pt" height="1024.000000pt" viewBox="0 0 1024.000000 1024.000000"
 preserveAspectRatio="xMidYMid meet">
<metadata>
Created by potrace 1.14, written by Peter Selinger 2001-2017
</metadata>
<g transform="translate(0.000000,1024.000000) scale(0.100000,-0.100000)"
fill="#000000" stroke="none">
<path d="M4578 8830 c-77 -14 -298 -80 -342 -102 -145 -73 -350 -266 -478
-450 -184 -264 -304 -578 -338 -886 -13 -121 -52 -276 -85 -341 -30 -60 -139
-152 -213 -180 -53 -20 -134 -34 -349 -60 -145 -18 -274 -82 -378 -187 -91
-93 -123 -154 -152 -293 -13 -63 -16 -161 -18 -566 -1 -269 -7 -566 -13 -660
-12 -179 -28 -703 -26 -865 3 -379 79 -815 179 -1028 61 -130 134 -198 316
-296 148 -79 283 -116 432 -116 92 0 155 -22 180 -62 27 -42 57 -251 77 -548
10 -146 25 -280 36 -325 4 -15 3 -16 -4 -6 -5 7 -12 9 -15 4 -11 -17 83 -189
143 -260 113 -136 254 -217 495 -284 98 -27 316 -42 440 -30 141 13 358 55
437 84 197 72 357 216 420 380 24 63 101 348 123 457 10 47 17 114 17 150 -2
91 -23 300 -33 328 -6 14 -5 31 1 43 9 17 22 19 101 19 95 0 129 -10 129 -37
0 -9 6 -24 14 -32 12 -13 13 -30 6 -84 -4 -37 -7 -94 -5 -125 4 -82 49 -296
81 -383 14 -41 33 -96 40 -123 9 -32 32 -70 66 -110 62 -73 81 -91 130 -116
80 -43 144 -52 408 -61 140 -5 304 -11 363 -15 91 -5 123 -3 202 15 86 20 103
29 197 95 131 93 182 148 245 266 83 154 117 283 133 509 11 159 71 528 110
681 5 19 14 75 20 124 6 49 24 157 40 240 34 178 52 308 80 586 26 242 27 319
12 630 -12 232 -21 310 -61 543 -37 212 -27 287 57 410 59 85 150 282 176 382
31 115 75 329 78 377 2 44 -37 234 -69 333 -53 163 -89 224 -380 643 -57 81
-150 217 -208 302 -116 172 -165 236 -307 402 -114 134 -135 154 -254 241
-186 136 -341 222 -510 282 -86 31 -202 67 -258 81 l-101 25 -670 4 c-368 2
-691 0 -717 -5z m1243 -445 c196 -36 389 -128 573 -273 104 -81 346 -336 329
-344 -4 -2 -66 -1 -138 3 -178 10 -916 2 -990 -10 -33 -5 -89 -13 -125 -16
-97 -9 -305 -53 -390 -81 -41 -14 -106 -42 -145 -62 -145 -77 -264 -245 -297
-422 -5 -30 -10 -216 -11 -415 -1 -351 0 -363 25 -475 33 -149 72 -249 154
-390 71 -124 105 -173 208 -292 58 -67 76 -82 153 -118 135 -65 392 -146 513
-164 159 -23 526 -16 690 12 69 12 154 27 190 32 73 12 293 67 415 104 229 69
255 75 279 66 13 -4 26 -16 30 -25 10 -26 7 -285 -3 -285 -13 0 -60 -150 -63
-197 0 -5 -4 -19 -9 -32 -5 -13 -14 -55 -19 -95 -21 -149 -93 -453 -130 -545
-52 -134 -152 -285 -259 -392 -49 -49 -73 -63 -201 -117 -299 -125 -475 -148
-895 -118 -27 2 -101 7 -163 10 -62 4 -118 9 -125 11 -7 2 -30 7 -52 10 -68 9
-237 43 -300 60 -93 25 -171 64 -274 137 -133 95 -223 186 -301 306 -76 116
-118 226 -190 507 -23 88 -48 174 -55 190 -17 39 -43 131 -50 175 -7 42 -29
124 -85 325 -39 142 -81 359 -94 490 -3 33 -11 103 -17 155 -6 52 -12 174 -15
270 -2 96 -7 274 -12 395 -13 337 -3 695 24 908 8 60 82 210 157 313 70 97
176 209 240 252 67 47 181 99 257 118 99 25 170 29 641 32 378 3 448 1 530
-13z m989 -950 c124 -27 252 -74 310 -112 118 -78 331 -315 392 -438 61 -120
68 -163 68 -392 0 -148 -2 -178 -20 -226 -33 -88 -150 -196 -290 -267 -144
-73 -576 -230 -636 -230 -16 0 -65 -7 -109 -15 -44 -8 -107 -14 -140 -15 -33
0 -109 -7 -170 -15 -141 -19 -241 -19 -347 0 -199 35 -434 146 -552 262 -65
63 -182 228 -226 316 -22 45 -47 114 -55 152 -33 160 -5 474 54 600 17 36 52
84 88 121 158 158 240 193 553 233 287 37 489 50 755 46 188 -2 269 -7 325
-20z m-3523 -1034 c34 -18 44 -43 33 -82 -10 -34 -25 -189 -35 -354 -9 -173
-15 -205 -36 -206 -10 -1 -22 -2 -26 -3 -5 -1 -28 -6 -53 -10 -25 -4 -58 -10
-75 -14 -46 -10 -132 -4 -213 14 -67 15 -75 19 -90 50 -12 27 -22 34 -44 34
-18 0 -31 -7 -39 -21 -25 -47 -30 -2 -15 127 21 175 61 301 122 381 31 41 98
81 155 93 60 12 288 6 316 -9z"/>
</g>
</svg>
